# xmcd
# 
# Track frame offsets:
#     192
#     17967
#     39717
#     54042
#     66942
#     79617
#     90267
#     106242
#     131142
#     142017
#     156942
#     170592
#     186492
#     196917
#     207342
#     220917
#     235692
#     248667
#     263817
#     274767
# 
# Disc length: 3894
# 
# Revision: 4
# Processed by: cddbd v1.5.2PL0 Copyright (c) Steve Scherf et al.
# Submitted via: fre:ac v1.0.31
# 
DISCID=1e0f3414
DTITLE=Set Your Life To Music - Baroque at Bathtime
DYEAR=1995
DGENRE=Classical
TTITLE0=Guitar Concerto in D Largo (Vivaldi)
TTITLE1=Oboe Concerto in D Minor Adagio (Marcello)
TTITLE2=Oboe Concerto in D Minor Siciliano (Bach)
TTITLE3=The Four Seasons "Winter" Largo (Vivaldi)
TTITLE4=Flute Concerto No. 3 in D "Il Gardellino" Cantabile (Vivaldi)
TTITLE5=Guitar Concerto in A Minor Largo (Vivaldi)
TTITLE6=Oboe d'amore Concerto in G Adagio (Telemann)
TTITLE7=Flute Concerto in G Arioso (Quantz)
TTITLE8=Oboe Concerto No. 1 in B-flat Adagio (Handel)
TTITLE9=Oboe Concerto No. 1 in B-flat Largo (Handel)
TTITLE10=Concerto in A Sicilienne (Telemann)
TTITLE11=Concerto in G for Two Guitars Andante (Vivaldi)
TTITLE12=Oboe Concerto in D Grazioso (Telemann)
TTITLE13=Oboe Concerto in C Introduzionne Larghetto (Cimarosa)
TTITLE14=Oboe Concerto in C Siciliana (Cimarosa)
TTITLE15=Water Music Suite No. 1 in F Air (Handel)
TTITLE16=Oboe Concerto No. 2 in B-flat Andante (Handel)
TTITLE17=Suite No. Andante (Marella)
TTITLE18=Concerto in f Preludio Adagio (Corelli/Barbirolli)
TTITLE19=Canon in D (Pachelbel)
EXTD=
EXTT0=
EXTT1=
EXTT2=
EXTT3=
EXTT4=
EXTT5=
EXTT6=
EXTT7=
EXTT8=
EXTT9=
EXTT10=
EXTT11=
EXTT12=
EXTT13=
EXTT14=
EXTT15=
EXTT16=
EXTT17=
EXTT18=
EXTT19=
PLAYORDER=
